<svg aria-hidden="true" style="position: absolute; width: 0; height: 0; overflow: hidden;" version="1.1" xmlns="http://www.w3.org/2000/svg" xmlns:xlink="http://www.w3.org/1999/xlink">
  <defs>
    <symbol id="icon-airplane" viewBox="0 0 31 32">
      <path d="M15.367 26.848l1.829-1.056-0.12-9.687 4.722-2.726c0 0 2.744-1.584 2.004-2.864s-3.483 0.303-3.483 0.303l-4.722 2.726-8.328-4.947-1.829 1.056 6.499 6.003-3.28 1.894-3.114-0.641-1.829 1.056 3.259 2.265 0.332 3.954 1.829-1.056 1.002-3.017 3.28-1.894 1.949 8.631z"></path>
    </symbol>
    <symbol id="icon-brush" viewBox="0 0 32 32">
      <path d="M4.541 21.835c-2.398 2.358-0.373 4.778-3.56 8.366-1.438 1.621 5.922 1.126 9.566-2.459 1.547-1.52 1.11-3.736-0.549-5.366-1.656-1.632-3.91-2.061-5.458-0.541zM31.118 1.395c-1.232-1.21-14.858 9.71-18.915 13.698-2.013 1.979-2.685 3.040-3.301 3.834-0.269 0.344 0.086 0.451 0.245 0.533 0.797 0.405 1.355 0.784 2.077 1.493 0.72 0.709 1.106 1.258 1.518 2.040 0.083 0.158 0.192 0.506 0.541 0.243 0.808-0.606 1.888-1.267 3.901-3.246 4.056-3.989 15.165-17.386 13.934-18.594z"></path>
    </symbol>
    <symbol id="icon-camera" viewBox="0 0 32 32">
      <path d="M15.973 12.691c-2.626 0-4.752 2.13-4.752 4.752 0 2.626 2.128 4.754 4.752 4.754s4.754-2.128 4.754-4.754c0-2.622-2.128-4.752-4.754-4.752zM28.646 7.939h-3.802c-0.523 0-1.086-0.405-1.251-0.901l-0.982-2.949c-0.166-0.496-0.728-0.901-1.251-0.901h-10.773c-0.523 0-1.086 0.405-1.251 0.901l-0.982 2.949c-0.166 0.496-0.73 0.901-1.251 0.901h-3.802c-1.742 0-3.168 1.426-3.168 3.168v14.258c0 1.742 1.426 3.168 3.168 3.168h25.347c1.742 0 3.168-1.426 3.168-3.168v-14.258c0-1.742-1.427-3.168-3.17-3.168zM15.973 25.365c-4.374 0-7.92-3.546-7.92-7.922 0-4.373 3.546-7.92 7.92-7.92s7.922 3.547 7.922 7.92c0 4.376-3.547 7.922-7.922 7.922zM27.538 13.323c-0.611 0-1.107-0.498-1.107-1.109s0.496-1.109 1.107-1.109c0.613 0 1.109 0.498 1.109 1.109s-0.496 1.109-1.109 1.109z"></path>
    </symbol>
    <symbol id="icon-music" viewBox="0 0 32 32">
      <path d="M10.152 4.342v18.8c-1.024-0.214-2.214-0.133-3.395 0.304-2.658 0.987-3.595 3.389-2.891 5.363 0.704 1.976 2.784 2.774 5.44 1.787 2.256-0.837 3.734-2.696 3.698-4.446 0 0 0-9.97 0-15.53l11.248-2.578v11.93c-1.026-0.213-2.216-0.133-3.397 0.306-2.656 0.987-3.594 3.389-2.89 5.363 0.702 1.976 2.782 2.774 5.438 1.789 2.258-0.838 3.734-2.698 3.699-4.446v-22.283l-16.95 3.642z"></path>
    </symbol>
  </defs>
</svg>
